# AST/ASF file generated using VICON BodyLanguage
# -----------------------------------------------
:version 1.10
:name VICON
:units
  mass 1.0
  length 0.45
  angle deg
:documentation
   .ast/.asf automatically generated from VICON data using
   VICON BodyBuilder and BodyLanguage model FoxedUp or BRILLIANT.MOD
:root
   order TX TY TZ RX RY RZ
   axis XYZ
   position 0 0 0  
   orientation 0 0 0 
:bonedata
  begin
     id 1 
     name lhipjoint
     direction 0.650112 -0.723553 0.232005 
     length 2.45805 
     axis 0 0 0  XYZ
  end
  begin
     id 2 
     name lfemur
     direction 0.34202 -0.939693 0  
     length 7.00073  
     axis 0 0 20  XYZ
    dof rx ry rz
    limits (-160.0 20.0)
           (-70.0 70.0)
           (-60.0 70.0)
  end
  begin
     id 3 
     name ltibia
     direction 0.34202 -0.939693 0   
     length 7.8748   
     axis 0 0 20   XYZ
    dof rx
    limits (-10.0 170.0)
  end
  begin
     id 4 
     name lfoot
     direction 0.0542825 -0.14914 0.987325   
     length 1.75978   
     axis -90 7.62852e-016 20   XYZ
    dof rx rz
    limits (-45.0 90.0)
           (-70.0 20.0)
  end
  begin
     id 5 
     name ltoes
     direction 1.53509e-011 -4.21906e-011 1   
     length 0.893912   
     axis -90 7.62852e-016 20   XYZ
    dof rx
    limits (-90.0 20.0)
  end
  begin
     id 6 
     name rhipjoint
     direction -0.637897 -0.733345 0.235145   
     length 2.42522  
     axis 0 0 0  XYZ 
  end
  begin
     id 7 
     name rfemur
     direction -0.34202 -0.939693 0   
     length 7.02549   
     axis 0 0 -20   XYZ
    dof rx ry rz
    limits (-160.0 20.0)
           (-70.0 70.0)
           (-70.0 60.0)
  end
  begin
     id 8 
     name rtibia
     direction -0.34202 -0.939693 0   
     length 7.71512   
     axis 0 0 -20   XYZ
    dof rx
    limits (-10.0 170.0)
 end
 begin
     id 9 
     name rfoot
     direction -0.0822618 -0.226012 0.970645   
     length 1.90014  
     axis -90 -7.62852e-016 -20   XYZ
    dof rx rz
    limits (-45.0 90.0)
           (-20.0 70.0)
  end
  begin
     id 10 
     name rtoes
     direction -1.53542e-011 -4.21872e-011 1   
     length 0.957341   
     axis -90 -7.62852e-016 -20   XYZ
    dof rx
    limits (-90.0 20.0)
  end
  begin
     id 11 
     name lowerback
     direction -0.0022947 0.999774 -0.0211557   
     length 1.89909   
     axis 0 0 0   XYZ
    dof rx ry rz
    limits (-20.0 45.0)
           (-30.0 30.0)
           (-30.0 30.0)
  end
  begin
     id 12 
     name upperback
     direction 0.0107737 0.998635 0.0511027   
     length 1.8853   
     axis 0 0 0   XYZ
    dof rx ry rz
    limits (-20.0 45.0)
           (-30.0 30.0)
           (-30.0 30.0)
  end
  begin
     id 13 
     name thorax
     direction 0.011824 0.998136 0.0598754   
     length 1.88911   
     axis 0 0 0   XYZ
    dof rx ry rz
    limits (-20.0 45.0)
           (-30.0 30.0)
           (-30.0 30.0)
  end
  begin
     id 14 
     name lowerneck
     direction -0.0685355 0.990319 0.120714   
     length 1.91222   
     axis 0 0 0   XYZ
    dof rx ry rz
    limits (-20.0 45.0)
           (-30.0 30.0)
           (-30.0 30.0)
  end
  begin
     id 15 
     name upperneck
     direction 0.0886204 0.955665 -0.280805   
     length 1.92526   
     axis 0 0 0   XYZ
    dof rx ry rz
    limits (-20.0 45.0)
           (-30.0 30.0)
           (-30.0 30.0)
  end
  begin
     id 16
     name head
     direction 0.0233423 0.993502 -0.111393  
     length 1.96056  
     axis 0 0 0   XYZ
    dof rx ry rz
    limits (-20.0 45.0)
           (-30.0 30.0)
           (-30.0 30.0)
  end
  begin
     id 17 
     name lclavicle
     direction 0.941873 0.32922 0.0670041  
     length 3.31705  
     axis 0 0 0   XYZ
    dof ry rz
    limits (-20.0 10.0)
           (0.0 20.0)
  end
  begin
     id 18 
     name lhumerus
     direction 1 -4.4898e-011 3.38707e-028   
     length 5.29277   
     axis 180 -30 -90   XYZ
    dof rx ry rz
    limits (-60.0 90.0)
           (-90.0 90.0)
           (-90.0 90.0)
  end
  begin
     id 19
     name lradius
     direction 1 -4.48952e-011 1.63213e-028   
     length 2.85226   
     axis 180 -30 -90   XYZ
    dof rx
    limits (-10.0 170.0)
  end
  begin
     id 20
     name lwrist
     direction 1 -4.49001e-011 1.27856e-027   
     length 1.42613   
     axis -1.61767e-015 90 90   XYZ
    dof ry
    limits (-180.0 0.0)
 end
  begin
     id 21 
     name lhand
     direction 1 -4.48976e-011 2.55931e-027   
     length 0.602097   
     axis -1.63363e-015 90 90   XYZ
    dof rx rz
    limits (-90.0 90.0)
           (-45.0 45.0)
  end
  begin
     id 22 
     name lfingers
     direction 1 -4.48986e-011 5.11684e-027   
     length 0.485426   
     axis -3.26723e-015 90 90   XYZ
    dof rx
    limits (0.0 90.0)
  end
  begin
     id 23
     name lthumb
     direction 0.707107 -6.34915e-011 0.707107   
     length 0.696978   
     axis -90 45 -2.25915e-014   XYZ
    dof rx rz
    limits (-45.0 45.0)
           (-45.0 45.0)
  end
  begin
     id 24 
     name rclavicle
     direction -0.939974 0.327078 0.0973096   
     length 3.10337  
     axis 0 0 0   XYZ 
    dof ry rz
    limits (-10.0 20.0)
           (-20.0 0.0)
  end
  begin
     id 25 
     name rhumerus
     direction -1 -4.48975e-011 1.83745e-027  
     length 5.13304   
     axis 180 30 90   XYZ
    dof rx ry rz
    limits (-90.0 60.0)
           (-90.0 90.0)
           (-90.0 90.0)
  end
  begin
     id 26 
     name rradius
     direction -1 -4.48977e-011 7.1775e-029   
     length 2.74305   
     axis 180 30 90   XYZ
    dof rx
    limits (-10.0 170.0)
  end
  begin
     id 27 
     name rwrist
     direction -1 -4.48977e-011 1.27963e-027   
     length 1.37152   
     axis -1.61767e-015 -90 -90   XYZ
    dof ry
    limits (-180.0 0.0)
  end
  begin
     id 28
     name rhand
     direction -1 -4.4888e-011 2.56782e-027   
     length 0.767976   
     axis -1.63363e-015 -90 -90   XYZ
    dof rx rz
    limits (-90.0 90.0)
           (-45.0 45.0)
  end
  begin
     id 29
     name rfingers
     direction -1 -4.48947e-011 5.12384e-027   
     length 0.619162   
     axis -3.26723e-015 -90 -90   XYZ
    dof rx
    limits (0.0 90.0)
  end
  begin
     id 30
     name rthumb
     direction -0.707107 -6.34857e-011 0.707107   
     length 0.888997   
     axis -90 -45 2.25915e-014   XYZ
    dof rx rz
    limits (-45.0 45.0)
           (-45.0 45.0)
  end
:hierarchy
  begin
    root lhipjoint rhipjoint lowerback
    lhipjoint lfemur
    lfemur ltibia
    ltibia lfoot
    lfoot ltoes
    rhipjoint rfemur
    rfemur rtibia
    rtibia rfoot
    rfoot rtoes
    lowerback upperback
    upperback thorax
    thorax lowerneck lclavicle rclavicle
    lowerneck upperneck
    upperneck head
    lclavicle lhumerus
    lhumerus lradius
    lradius lwrist
    lwrist lhand lthumb
    lhand lfingers
    rclavicle rhumerus
    rhumerus rradius
    rradius rwrist
    rwrist rhand rthumb
    rhand rfingers
  end

#!OML:ASF F:\VICON\USERDATA\INSTALL\rory3\rory3.ASF
:FULLY-SPECIFIED
:DEGREES
823
root 0.074223 17.4063 0.96553 3.60503 1.09487 -0.846865
lowerback -5.28477 -0.880161 0.768447
upperback -3.65247 -1.19961 2.02876
thorax -0.765126 -0.591965 1.5979
lowerneck -9.28516 -10.5429 -16.9262
upperneck 25.6956 -16.1921 15.3429
head 12.8188 -7.43497 6.22811
rclavicle 1.33683e-014 -1.19271e-015
rhumerus -36.0068 -3.67055 -81.1243
rradius 20.4728
rwrist 28.7266
rhand -4.23852 11.3357
rfingers 7.12502
rthumb 21.5249 -17.4883
lclavicle 1.33683e-014 -1.19271e-015
lhumerus -23.3337 -13.4786 90.0262
lradius 26.3861
lwrist -18.2136
lhand -4.285 18.4614
lfingers 7.12502
lthumb 21.4803 47.2904
rfemur 6.1774 9.22342 19.8334
rtibia 7.95139e-015
rfoot -8.54862 -10.6903
rtoes -12.1521
lfemur -2.44505 -19.6167 -17.4521
ltibia 14.6275
lfoot -15.1414 14.0957
ltoes -19.7576
824
root 0.0713668 17.4069 0.963279 3.54054 1.0682 -1.04697
lowerback -5.17856 -0.882252 0.862903
upperback -3.61552 -1.20492 1.99193
thorax -0.788701 -0.596695 1.50813
lowerneck -9.31791 -10.5661 -16.8576
upperneck 25.5492 -16.2319 15.4052
head 12.774 -7.44 6.22634
rclavicle 1.00883e-014 9.93923e-015
rhumerus -36.1363 -2.18452 -82.3412
rradius 21.1626
rwrist 27.4871
rhand -3.95062 11.3152
rfingers 7.12502
rthumb 21.8014 -17.4769
lclavicle 1.00883e-014 9.93923e-015
lhumerus -24.2358 -14.2721 91.0446
lradius 26.6026
lwrist -17.7884
lhand -4.0745 18.4831
lfingers 7.12502
lthumb 21.6824 47.2889
rfemur 6.22667 9.27841 20.0836
rtibia -1.27222e-014
rfoot -8.4687 -10.7646
rtoes -12.0962
lfemur -2.43479 -19.5975 -17.2395
ltibia 14.7382
lfoot -15.1734 14.1645
ltoes -20.045
825
root 0.0681186 17.4065 0.96216 3.49827 1.01332 -1.12458
lowerback -5.1018 -0.841142 0.818004
upperback -3.5692 -1.14804 1.91124
thorax -0.785454 -0.56838 1.45353
lowerneck -9.28949 -10.6051 -16.8106
upperneck 25.3141 -16.3102 15.549
head 12.6999 -7.46023 6.25281
rclavicle 1.38652e-014 -1.23246e-014
rhumerus -36.2922 -0.974469 -83.4216
rradius 21.9292
rwrist 26.477
rhand -3.31417 11.2261
rfingers 7.12502
rthumb 22.4124 -17.4936
lclavicle 1.38652e-014 -1.23246e-014
lhumerus -25.0833 -15.1389 92.1239
lradius 26.7617
lwrist -17.4585
lhand -3.93718 18.4752
lfingers 7.12502
lthumb 21.8143 47.2658
rfemur 6.25832 9.35416 20.1879
rtibia -2.70347e-014
rfoot -8.38252 -10.8148
rtoes -11.9349
lfemur -2.44103 -19.5583 -17.1726
ltibia 14.8618
lfoot -15.2247 14.2443
ltoes -20.142
826
root 0.0676309 17.4055 0.961293 3.43438 0.944945 -1.04756
lowerback -5.02877 -0.818227 0.627192
upperback -3.50312 -1.11042 1.79197
thorax -0.757287 -0.547721 1.43994
lowerneck -9.39292 -10.6285 -16.7707
upperneck 25.2499 -16.3736 15.6977
head 12.7215 -7.46581 6.28704
rclavicle -8.00108e-015 1.59028e-014
rhumerus -36.4163 0.0723611 -84.4279
rradius 22.6667
rwrist 25.5094
rhand -2.61488 11.1984
rfingers 7.12502
rthumb 23.0835 -17.4389
lclavicle -8.00108e-015 1.59028e-014
lhumerus -25.8058 -15.7288 93.0847
lradius 26.7575
lwrist -17.5702
lhand -3.43298 18.4765
lfingers 7.12502
lthumb 22.2984 47.2099
rfemur 6.32373 9.43443 20.1174
rtibia 2.38542e-014
rfoot -8.34679 -10.8595
rtoes -12.716
lfemur -2.3933 -19.5175 -17.2968
ltibia 14.9467
lfoot -15.2552 14.1825
ltoes -19.8148
827
root 0.06629 17.4046 0.959456 3.35423 0.91929 -1.09665
lowerback -4.96054 -0.839644 0.532651
upperback -3.41742 -1.13596 1.73464
thorax -0.705751 -0.55978 1.43302
lowerneck -9.48229 -10.6283 -16.7921
upperneck 25.1412 -16.4024 15.906
head 12.7281 -7.45755 6.36145
rclavicle -1.93815e-015 -1.19271e-015
rhumerus -36.5134 1.20129 -85.4247
rradius 23.3278
rwrist 24.5719
rhand -2.12322 11.2233
rfingers 7.12502
rthumb 23.5552 -17.3542
lclavicle -1.93815e-015 -1.19271e-015
lhumerus -26.5902 -16.3715 94.0425
lradius 26.7649
lwrist -17.4126
lhand -2.97994 18.5494
lfingers 7.12502
lthumb 22.7332 47.2301
rfemur 6.4061 9.47924 20.1896
rtibia -1.90833e-014
rfoot -8.41209 -10.8431
rtoes -12.5169
lfemur -2.31572 -19.5112 -17.2728
ltibia 14.9761
lfoot -15.2947 14.1425
ltoes -19.3976
828
root 0.064441 17.4027 0.955958 3.27891 0.886669 -1.17453
lowerback -4.87923 -0.856559 0.467437
upperback -3.30516 -1.15688 1.69432
thorax -0.634525 -0.569982 1.42727
lowerneck -9.61769 -10.6403 -16.7801
upperneck 24.9573 -16.4155 16.0509
head 12.7001 -7.44311 6.40181
rclavicle 9.39258e-015 -5.56597e-015
rhumerus -36.5688 2.60038 -86.5284
rradius 24.0259
rwrist 23.3218
rhand -1.81409 11.0896
rfingers 7.12502
rthumb 23.8517 -17.4495
lclavicle 9.39258e-015 -5.56597e-015
lhumerus -27.3079 -16.935 95.0181
lradius 26.6328
lwrist -16.9262
lhand -2.79618 18.708
lfingers 7.12502
lthumb 22.9096 47.367
rfemur 6.46977 9.53229 20.2992
rtibia 1.11319e-014
rfoot -8.41029 -10.8616
rtoes -12.3896
lfemur -2.22852 -19.496 -17.2122
ltibia 14.9708
lfoot -15.2652 14.2354
ltoes -19.9579
829
root 0.0639559 17.4013 0.951977 3.23081 0.899566 -1.25918
lowerback -4.84183 -0.840718 0.46314
upperback -3.20724 -1.13675 1.61039
thorax -0.556565 -0.560919 1.34382
lowerneck -9.72008 -10.6786 -16.7123
upperneck 24.7934 -16.4928 16.2115
head 12.6831 -7.45214 6.42884
rclavicle -5.19325e-015 1.59028e-015
rhumerus -36.7618 4.14865 -87.7564
rradius 24.8386
rwrist 21.7933
rhand -1.65742 11.0017
rfingers 7.12502
rthumb 24.0019 -17.5177
lclavicle -5.19325e-015 1.59028e-015
lhumerus -28.0503 -17.8593 96.072
lradius 26.4624
lwrist -16.1013
lhand -2.41075 18.967
lfingers 7.12502
lthumb 23.2794 47.5797
rfemur 6.50524 9.54056 20.4017
rtibia 9.54166e-015
rfoot -8.41305 -10.879
rtoes -12.5605
lfemur -2.16534 -19.5249 -17.1387
ltibia 14.9556
lfoot -15.2514 14.3064
ltoes -20.3591
830
root 0.0622063 17.4009 0.949932 3.2105 0.861394 -1.21297
lowerback -4.84909 -0.806425 0.344202
upperback -3.13745 -1.08768 1.4625
thorax -0.482253 -0.536214 1.25993
lowerneck -9.69722 -10.7057 -16.7015
upperneck 24.5821 -16.5843 16.474
head 12.6418 -7.47119 6.50766
rclavicle 3.37934e-014 2.38542e-015
rhumerus -37.05 5.34114 -88.8585
rradius 25.6234
rwrist 20.8794
rhand -1.61451 10.9696
rfingers 7.12502
rthumb 24.0431 -17.5444
lclavicle 3.37934e-014 2.38542e-015
lhumerus -28.836 -18.6762 97.0663
lradius 26.2876
lwrist -15.5166
lhand -1.98443 19.2296
lfingers 7.12502
lthumb 23.6883 47.7899
rfemur 6.51957 9.59278 20.358
rtibia 1.43125e-014
rfoot -8.43033 -10.8904
rtoes -12.3761
lfemur -2.13342 -19.5089 -17.189
ltibia 14.9489
lfoot -15.5585 14.2597
ltoes -19.1784
831
root 0.0602845 17.4011 0.949081 3.21136 0.776196 -1.12886
lowerback -4.86021 -0.761632 0.160675
upperback -3.09466 -1.02162 1.36139
thorax -0.43193 -0.501696 1.26136
lowerneck -9.61047 -10.7369 -16.8435
upperneck 24.378 -16.6575 16.7268
head 12.6016 -7.5008 6.61455
rclavicle 2.01269e-015 6.16232e-015
rhumerus -37.2957 6.0458 -89.5936
rradius 26.2643
rwrist 20.7634
rhand -1.43072 11.0156
rfingers 7.12502
rthumb 24.2193 -17.4749
lclavicle 2.01269e-015 6.16232e-015
lhumerus -29.6666 -19.2707 98.122
lradius 26.2673
lwrist -15.083
lhand -1.22564 20.0112
lfingers 7.12502
lthumb 24.4159 48.4754
rfemur 6.50784 9.69023 20.2632
rtibia 7.95139e-015
rfoot -8.42452 -10.8815
rtoes -11.8719
lfemur -2.11838 -19.4481 -17.2966
ltibia 14.9621
lfoot -15.8541 14.2065
ltoes -17.8748
832
root 0.0612127 17.4002 0.947904 3.13834 0.702916 -1.1709
lowerback -4.76759 -0.732947 0.108809
upperback -3.04793 -0.98121 1.32421
thorax -0.436053 -0.48122 1.25488
lowerneck -9.57549 -10.7657 -17.0002
upperneck 24.2457 -16.713 16.9278
head 12.5933 -7.52508 6.70723
rclavicle -7.30534e-015 -3.37934e-015
rhumerus -37.5209 6.65827 -90.2075
rradius 26.8862
rwrist 20.9758
rhand -1.32438 11.014
rfingers 7.12502
rthumb 24.3213 -17.463
lclavicle -7.30534e-015 -3.37934e-015
lhumerus -30.5593 -19.7738 99.1937
lradius 26.2619
lwrist -14.7926
lhand -0.663361 20.7852
lfingers 7.12502
lthumb 24.9548 49.1757
rfemur 6.57407 9.78196 20.3226
rtibia -3.18055e-015
rfoot -8.37302 -10.9127
rtoes -12.1123
lfemur -2.03791 -19.3954 -17.3036
ltibia 15.0095
lfoot -15.7025 14.2755
ltoes -19.0143
833
root 0.0634746 17.4 0.945631 3.08537 0.619593 -1.2636
lowerback -4.71475 -0.716744 0.125662
upperback -2.9693 -0.96078 1.29039
thorax -0.385911 -0.471833 1.21158
lowerneck -9.53111 -10.7619 -17.0418
upperneck 23.9896 -16.714 17.1052
head 12.5068 -7.51886 6.77641
rclavicle 1.16289e-014 -8.15017e-015
rhumerus -37.653 7.46231 -90.9055
rradius 27.4122
rwrist 21.3016
rhand -1.51244 11.1082
rfingers 7.12502
rthumb 24.141 -17.3928
lclavicle 1.16289e-014 -8.15017e-015
lhumerus -31.3445 -20.2273 100.175
lradius 26.0536
lwrist -14.6582
lhand -0.461216 21.2605
lfingers 7.12502
lthumb 25.1485 49.624
rfemur 6.6103 9.88659 20.4257
rtibia 1.59028e-015
rfoot -8.35616 -10.9259
rtoes -12.3182
lfemur -1.99053 -19.3455 -17.247
ltibia 15.0793
lfoot -15.7381 14.2205
ltoes -18.8299
834
root 0.0657352 17.3993 0.941851 3.05571 0.556456 -1.39573
lowerback -4.73394 -0.691662 0.173784
upperback -2.82933 -0.93101 1.26009
thorax -0.233251 -0.458413 1.1533
lowerneck -9.64619 -10.7899 -17.0257
upperneck 23.7856 -16.751 17.2592
head 12.4741 -7.51562 6.81443
rclavicle -5.46658e-015 -1.07344e-014
rhumerus -37.5925 8.1072 -91.5007
rradius 27.7453
rwrist 21.8771
rhand -1.65916 11.2644
rfingers 7.12502
rthumb 24.0003 -17.2552
lclavicle -5.46658e-015 -1.07344e-014
lhumerus -31.8403 -20.1117 100.822
lradius 25.6692
lwrist -15.0252
lhand 0.283854 21.814
lfingers 7.12502
lthumb 25.8622 50.0755
rfemur 6.61161 9.97321 20.5673
rtibia -2.38542e-014
rfoot -8.34996 -10.9523
rtoes -12.5927
lfemur -2.01868 -19.3328 -17.1238
ltibia 15.193
lfoot -15.9223 14.1523
ltoes -17.7378
835
root 0.0665478 17.3978 0.938009 3.01689 0.541819 -1.43627
lowerback -4.72771 -0.696899 0.0580203
upperback -2.71627 -0.934688 1.24295
thorax -0.118978 -0.459615 1.19958
lowerneck -9.80854 -10.8325 -17.0636
upperneck 23.7331 -16.8075 17.3743
head 12.5175 -7.52505 6.8468
rclavicle -2.04997e-014 1.51076e-014
rhumerus -37.5831 8.59134 -91.95
rradius 28.0627
rwrist 22.6668
rhand -1.69464 11.3412
rfingers 7.12502
rthumb 23.9662 -17.1829
lclavicle -2.04997e-014 1.51076e-014
lhumerus -32.4138 -20.0527 101.523
lradius 25.3529
lwrist -15.1565
lhand 0.774707 21.9476
lfingers 7.12502
lthumb 26.3322 50.1396
rfemur 6.62901 10.0065 20.6138
rtibia 1.74931e-014
rfoot -8.34001 -10.9714
rtoes -12.5972
lfemur -2.03603 -19.3379 -17.0987
ltibia 15.2853
lfoot -15.9598 14.1655
ltoes -17.4289
836
root 0.0661537 17.397 0.935373 2.98584 0.540436 -1.47999
lowerback -4.67251 -0.717929 -0.0850942
upperback -2.68816 -0.957147 1.26205
thorax -0.117793 -0.469309 1.2989
lowerneck -9.78277 -10.84 -17.206
upperneck 23.6562 -16.8173 17.4969
head 12.5132 -7.53382 6.9164
rclavicle 8.87077e-015 3.37934e-015
rhumerus -37.6979 8.96126 -92.2589
rradius 28.3955
rwrist 23.7784
rhand -1.68391 11.4842
rfingers 7.12502
rthumb 23.9765 -17.0385
lclavicle 8.87077e-015 3.37934e-015
lhumerus -33.1031 -19.9012 102.309
lradius 24.979
lwrist -15.3181
lhand 0.666725 21.1929
lfingers 7.12502
lthumb 26.2288 49.4003
rfemur 6.65409 10.0266 20.6668
rtibia 2.06736e-014
rfoot -8.32846 -10.9872
rtoes -12.3373
lfemur -2.06046 -19.2816 -17.0542
ltibia 15.3746
lfoot -15.8523 14.17
ltoes -17.8284
837
root 0.0669481 17.3978 0.935476 2.95657 0.525333 -1.53116
lowerback -4.6626 -0.692135 -0.13941
upperback -2.63966 -0.921017 1.23515
thorax -0.0739544 -0.451149 1.30312
lowerneck -9.72759 -10.8466 -17.2913
upperneck 23.5075 -16.8355 17.6443
head 12.4731 -7.54141 6.98273
rclavicle 1.06474e-014 -1.59028e-015
rhumerus -37.7203 9.22485 -92.4846
rradius 28.573
rwrist 24.9314
rhand -1.57261 11.7396
rfingers 7.12502
rthumb 24.0833 -16.769
lclavicle 1.06474e-014 -1.59028e-015
lhumerus -33.6507 -19.6511 102.958
lradius 24.5304
lwrist -15.4148
lhand 0.815814 20.6483
lfingers 7.12502
lthumb 26.3715 48.8344
rfemur 6.688 10.0608 20.7227
rtibia -1.59028e-015
rfoot -8.39249 -11.0043
rtoes -11.8721
lfemur -2.04432 -19.3488 -17.0225
ltibia 15.4459
lfoot -15.8769 14.2153
ltoes -17.7654
